<svg width="1200" height="500" viewBox="0 0 1200 500" xmlns="http://www.w3.org/2000/svg">
  <defs>
    <linearGradient id="bg" x1="0" y1="0" x2="1" y2="1">
      <stop offset="0%" stop-color="#07203c" />
      <stop offset="45%" stop-color="#0b4a6d" />
      <stop offset="100%" stop-color="#111827" />
    </linearGradient>
    <linearGradient id="mesh" x1="0" y1="0" x2="1" y2="1">
      <stop offset="0%" stop-color="#22d3ee" stop-opacity="0.18" />
      <stop offset="60%" stop-color="#8b5cf6" stop-opacity="0.16" />
      <stop offset="100%" stop-color="#60a5fa" stop-opacity="0.12" />
    </linearGradient>
    <filter id="blur" x="-20%" y="-20%" width="140%" height="140%">
      <feGaussianBlur stdDeviation="24" />
    </filter>
  </defs>

  <rect width="1200" height="500" fill="url(#bg)" rx="32" />
  <rect x="80" y="80" width="1040" height="340" rx="28" fill="url(#mesh)" filter="url(#blur)" />

  <g opacity="0.65">
    <circle cx="200" cy="140" r="80" fill="#22d3ee" />
    <circle cx="960" cy="100" r="60" fill="#8b5cf6" />
    <ellipse cx="720" cy="360" rx="180" ry="70" fill="#60a5fa" />
  </g>

  <g opacity="0.85">
    <rect x="120" y="220" width="450" height="20" rx="10" fill="#ffffff" fill-opacity="0.08" />
    <rect x="120" y="260" width="320" height="16" rx="8" fill="#ffffff" fill-opacity="0.06" />
    <rect x="120" y="300" width="370" height="16" rx="8" fill="#ffffff" fill-opacity="0.06" />
    <rect x="120" y="340" width="240" height="16" rx="8" fill="#ffffff" fill-opacity="0.06" />
  </g>

  <g transform="translate(620,140)">
    <rect x="0" y="0" width="460" height="260" rx="24" fill="#020617" fill-opacity="0.92" />
    <path d="M24 44H420" stroke="#22d3ee" stroke-width="4" stroke-linecap="round" />
    <rect x="24" y="80" width="420" height="22" rx="10" fill="#ffffff" fill-opacity="0.1" />
    <rect x="24" y="124" width="320" height="16" rx="8" fill="#ffffff" fill-opacity="0.06" />
    <rect x="24" y="156" width="380" height="14" rx="7" fill="#ffffff" fill-opacity="0.06" />
    <rect x="24" y="194" width="220" height="14" rx="7" fill="#22d3ee" fill-opacity="0.24" />
  </g>

  <text x="110" y="150" font-family="Inter, sans-serif" font-size="46" font-weight="800" fill="#ffffff">Ede-Rojin Computer Engineering Portfolio</text>
  <text x="110" y="204" font-family="Inter, sans-serif" font-size="20" fill="#cbd5e1" letter-spacing="0.04em">Dark-first portfolio for practical software, backend systems, AI and data engineering.</text>

  <g opacity="0.75">
    <text x="110" y="430" font-family="Inter, sans-serif" font-size="16" fill="#94a3b8">Next.js · TypeScript · Tailwind CSS · Motion · shadcn/ui · React Hook Form · Zod</text>
  </g>
</svg>