<svg width="1600" height="1000" viewBox="0 0 1600 1000" fill="none" xmlns="http://www.w3.org/2000/svg">
  <rect width="1600" height="1000" rx="40" fill="#07111F"/>
  <rect x="80" y="84" width="1440" height="832" rx="32" fill="url(#bg)" stroke="#818CF8" stroke-opacity="0.24"/>
  <rect x="120" y="138" width="522" height="72" rx="20" fill="#020617" stroke="#818CF8" stroke-opacity="0.22"/>
  <rect x="120" y="250" width="538" height="22" rx="11" fill="#E2E8F0" fill-opacity="0.16"/>
  <rect x="120" y="292" width="418" height="18" rx="9" fill="#E2E8F0" fill-opacity="0.13"/>
  <rect x="120" y="352" width="612" height="284" rx="28" fill="#0F172A" stroke="#38BDF8" stroke-opacity="0.22"/>
  <rect x="156" y="392" width="226" height="16" rx="8" fill="#818CF8" fill-opacity="0.82"/>
  <rect x="156" y="430" width="202" height="12" rx="6" fill="#E2E8F0" fill-opacity="0.3"/>
  <rect x="156" y="462" width="254" height="12" rx="6" fill="#E2E8F0" fill-opacity="0.24"/>
  <rect x="786" y="138" width="694" height="620" rx="30" fill="#020617" stroke="#60A5FA" stroke-opacity="0.2"/>
  <rect x="822" y="176" width="622" height="374" rx="24" fill="url(#panel)"/>
  <path d="M874 492C946 390 1036 374 1122 410C1212 450 1268 528 1352 544C1418 556 1478 518 1510 480" stroke="#22D3EE" stroke-width="10" stroke-linecap="round"/>
  <rect x="822" y="584" width="176" height="56" rx="16" fill="#111827" stroke="#818CF8" stroke-opacity="0.22"/>
  <rect x="1022" y="584" width="164" height="56" rx="16" fill="#111827" stroke="#38BDF8" stroke-opacity="0.2"/>
  <rect x="1212" y="584" width="148" height="56" rx="16" fill="#111827" stroke="#A78BFA" stroke-opacity="0.22"/>
  <defs>
    <linearGradient id="bg" x1="104" y1="124" x2="1488" y2="856" gradientUnits="userSpaceOnUse">
      <stop stop-color="#111827"/>
      <stop offset="1" stop-color="#0F172A"/>
    </linearGradient>
    <linearGradient id="panel" x1="822" y1="176" x2="1436" y2="550" gradientUnits="userSpaceOnUse">
      <stop stop-color="#1E3A8A"/>
      <stop offset="0.5" stop-color="#4F46E5"/>
      <stop offset="1" stop-color="#0F766E"/>
    </linearGradient>
  </defs>
</svg>