<svg width="1600" height="1000" viewBox="0 0 1600 1000" fill="none" xmlns="http://www.w3.org/2000/svg">
  <rect width="1600" height="1000" rx="40" fill="#F8FAFC"/>
  <rect x="80" y="84" width="1440" height="832" rx="32" fill="url(#bg)" stroke="#4F46E5" stroke-opacity="0.18"/>
  <rect x="122" y="138" width="504" height="72" rx="20" fill="#FFFFFF" stroke="#4F46E5" stroke-opacity="0.16"/>
  <rect x="122" y="252" width="546" height="20" rx="10" fill="#0F172A" fill-opacity="0.11"/>
  <rect x="122" y="292" width="428" height="16" rx="8" fill="#0F172A" fill-opacity="0.08"/>
  <rect x="122" y="354" width="618" height="292" rx="28" fill="#FFFFFF" stroke="#4F46E5" stroke-opacity="0.16"/>
  <rect x="156" y="392" width="206" height="16" rx="8" fill="#4F46E5" fill-opacity="0.8"/>
  <rect x="156" y="430" width="236" height="12" rx="6" fill="#0F172A" fill-opacity="0.1"/>
  <rect x="156" y="462" width="282" height="12" rx="6" fill="#0F172A" fill-opacity="0.08"/>
  <rect x="786" y="138" width="692" height="620" rx="30" fill="#F8FAFC" stroke="#38BDF8" stroke-opacity="0.2"/>
  <rect x="824" y="176" width="616" height="370" rx="24" fill="url(#panel)"/>
  <path d="M882 496C944 398 1030 372 1116 408C1204 446 1258 514 1344 536C1398 552 1458 524 1498 486" stroke="#4F46E5" stroke-width="10" stroke-linecap="round"/>
  <rect x="824" y="586" width="182" height="56" rx="16" fill="#EFF6FF" stroke="#4F46E5" stroke-opacity="0.18"/>
  <rect x="1024" y="586" width="160" height="56" rx="16" fill="#EFF6FF" stroke="#38BDF8" stroke-opacity="0.16"/>
  <rect x="1210" y="586" width="154" height="56" rx="16" fill="#EFF6FF" stroke="#14B8A6" stroke-opacity="0.16"/>
  <defs>
    <linearGradient id="bg" x1="104" y1="122" x2="1490" y2="858" gradientUnits="userSpaceOnUse">
      <stop stop-color="#F8FAFC"/>
      <stop offset="1" stop-color="#EFF6FF"/>
    </linearGradient>
    <linearGradient id="panel" x1="824" y1="176" x2="1438" y2="546" gradientUnits="userSpaceOnUse">
      <stop stop-color="#BFDBFE"/>
      <stop offset="0.54" stop-color="#38BDF8"/>
      <stop offset="1" stop-color="#14B8A6"/>
    </linearGradient>
  </defs>
</svg>