<svg width="1600" height="1000" viewBox="0 0 1600 1000" fill="none" xmlns="http://www.w3.org/2000/svg">
  <rect width="1600" height="1000" rx="40" fill="#07111F"/>
  <rect x="80" y="84" width="1440" height="832" rx="32" fill="url(#bg)" stroke="#22D3EE" stroke-opacity="0.24"/>
  <rect x="120" y="138" width="538" height="72" rx="20" fill="#020617" stroke="#22D3EE" stroke-opacity="0.22"/>
  <rect x="120" y="250" width="552" height="22" rx="11" fill="#E2E8F0" fill-opacity="0.16"/>
  <rect x="120" y="292" width="438" height="18" rx="9" fill="#E2E8F0" fill-opacity="0.13"/>
  <rect x="120" y="352" width="618" height="292" rx="28" fill="#0F172A" stroke="#38BDF8" stroke-opacity="0.22"/>
  <rect x="156" y="392" width="236" height="16" rx="8" fill="#22D3EE" fill-opacity="0.82"/>
  <rect x="156" y="430" width="196" height="12" rx="6" fill="#E2E8F0" fill-opacity="0.3"/>
  <rect x="156" y="462" width="264" height="12" rx="6" fill="#E2E8F0" fill-opacity="0.24"/>
  <rect x="792" y="138" width="688" height="620" rx="28" fill="#020617" stroke="#60A5FA" stroke-opacity="0.22"/>
  <rect x="828" y="176" width="616" height="374" rx="24" fill="url(#panel)"/>
  <path d="M884 496C952 394 1044 374 1126 412C1210 452 1268 524 1348 542C1414 556 1476 524 1512 486" stroke="#22D3EE" stroke-width="10" stroke-linecap="round"/>
  <rect x="828" y="586" width="176" height="56" rx="16" fill="#111827" stroke="#38BDF8" stroke-opacity="0.2"/>
  <rect x="1028" y="586" width="164" height="56" rx="16" fill="#111827" stroke="#22D3EE" stroke-opacity="0.2"/>
  <rect x="1218" y="586" width="150" height="56" rx="16" fill="#111827" stroke="#A78BFA" stroke-opacity="0.22"/>
  <defs>
    <linearGradient id="bg" x1="104" y1="122" x2="1490" y2="858" gradientUnits="userSpaceOnUse">
      <stop stop-color="#111827"/>
      <stop offset="1" stop-color="#0F172A"/>
    </linearGradient>
    <linearGradient id="panel" x1="828" y1="176" x2="1432" y2="550" gradientUnits="userSpaceOnUse">
      <stop stop-color="#0F172A"/>
      <stop offset="0.52" stop-color="#2563EB"/>
      <stop offset="1" stop-color="#0F766E"/>
    </linearGradient>
  </defs>
</svg>