<svg width="1600" height="1000" viewBox="0 0 1600 1000" fill="none" xmlns="http://www.w3.org/2000/svg">
  <rect width="1600" height="1000" rx="40" fill="#07111F"/>
  <rect x="60" y="60" width="1480" height="880" rx="30" fill="url(#bg)" stroke="#3B82F6" stroke-opacity="0.35" stroke-width="2"/>
  <rect x="106" y="120" width="368" height="70" rx="18" fill="#0F172A" stroke="#60A5FA" stroke-opacity="0.3"/>
  <rect x="106" y="220" width="420" height="26" rx="13" fill="#E2E8F0" fill-opacity="0.14"/>
  <rect x="106" y="266" width="336" height="18" rx="9" fill="#E2E8F0" fill-opacity="0.13"/>
  <rect x="106" y="322" width="534" height="188" rx="24" fill="#0F172A" stroke="#22D3EE" stroke-opacity="0.2"/>
  <rect x="140" y="360" width="208" height="16" rx="8" fill="#60A5FA" fill-opacity="0.7"/>
  <rect x="140" y="392" width="160" height="12" rx="6" fill="#E2E8F0" fill-opacity="0.28"/>
  <rect x="140" y="420" width="240" height="12" rx="6" fill="#E2E8F0" fill-opacity="0.2"/>
  <rect x="692" y="120" width="800" height="560" rx="24" fill="#020617" stroke="#38BDF8" stroke-opacity="0.28"/>
  <rect x="730" y="162" width="728" height="394" rx="18" fill="url(#panel)"/>
  <rect x="770" y="208" width="220" height="16" rx="8" fill="#F8FAFC" fill-opacity="0.8"/>
  <rect x="770" y="244" width="308" height="12" rx="6" fill="#E2E8F0" fill-opacity="0.3"/>
  <rect x="770" y="296" width="186" height="146" rx="16" fill="#0F172A" fill-opacity="0.94"/>
  <rect x="978" y="296" width="176" height="146" rx="16" fill="#0F172A" fill-opacity="0.92"/>
  <rect x="1166" y="296" width="132" height="146" rx="16" fill="#0F172A" fill-opacity="0.86"/>
  <path d="M790 430C834 380 900 362 958 384C1018 408 1034 466 1096 484C1148 496 1214 474 1240 446" stroke="#22D3EE" stroke-width="10" stroke-linecap="round"/>
  <rect x="730" y="612" width="188" height="48" rx="16" fill="#111827" stroke="#60A5FA" stroke-opacity="0.25"/>
  <rect x="940" y="612" width="128" height="48" rx="16" fill="#111827" stroke="#22D3EE" stroke-opacity="0.22"/>
  <rect x="1090" y="612" width="148" height="48" rx="16" fill="#111827" stroke="#A78BFA" stroke-opacity="0.22"/>
  <circle cx="276" cy="730" r="68" fill="#60A5FA" fill-opacity="0.16"/>
  <circle cx="280" cy="730" r="34" fill="#22D3EE" fill-opacity="0.26"/>
  <defs>
    <linearGradient id="bg" x1="80" y1="80" x2="1540" y2="920" gradientUnits="userSpaceOnUse">
      <stop stop-color="#0F172A"/>
      <stop offset="1" stop-color="#111827"/>
    </linearGradient>
    <linearGradient id="panel" x1="760" y1="180" x2="1428" y2="560" gradientUnits="userSpaceOnUse">
      <stop stop-color="#111827"/>
      <stop offset="0.5" stop-color="#1E3A8A"/>
      <stop offset="1" stop-color="#0F766E"/>
    </linearGradient>
  </defs>
</svg>
